<svg width="17" height="17" viewBox="0 0 17 17" fill="none" xmlns="http://www.w3.org/2000/svg">
<path d="M15.4588 11.2513C14.4939 11.2513 13.5465 11.1005 12.6487 10.804C12.2087 10.6541 11.6679 10.7917 11.3994 11.0672L9.62727 12.404C7.57211 11.3078 6.30618 10.0432 5.22412 8.00499L6.52252 6.28033C6.85985 5.9437 6.98085 5.45197 6.83588 4.99058C6.53791 4.08871 6.38654 3.14243 6.38654 2.17782C6.38658 1.48098 5.81924 0.914062 5.12192 0.914062H2.22755C1.53023 0.914062 0.962891 1.48098 0.962891 2.17778C0.962891 10.165 7.46569 16.6628 15.4588 16.6628C16.1562 16.6628 16.7235 16.0959 16.7235 15.3991V12.515C16.7235 11.8182 16.1561 11.2513 15.4588 11.2513Z" fill="#FFA800"/>
</svg>
